<?xml version="1.0" standalone="no"?>
<!DOCTYPE svg PUBLIC "-//W3C//DTD SVG 20010904//EN"
 "http://www.w3.org/TR/2001/REC-SVG-20010904/DTD/svg10.dtd">
<svg version="1.0" xmlns="http://www.w3.org/2000/svg"
 width="264.000000pt" height="264.000000pt" viewBox="0 0 264.000000 264.000000"
 preserveAspectRatio="xMidYMid meet">
<metadata>
Created by potrace 1.11, written by Peter Selinger 2001-2013
</metadata>
<g transform="translate(0.000000,264.000000) scale(0.100000,-0.100000)"
fill="#000000" stroke="none">
<path d="M843 1825 l-23 -16 0 -488 c0 -460 1 -489 18 -504 39 -36 31 -39 525
255 109 65 200 118 202 118 3 0 5 -79 5 -175 0 -218 -1 -215 123 -215 59 0 89
5 105 16 l22 15 0 474 0 474 -22 15 c-16 11 -46 16 -103 16 -72 0 -84 -3 -103
-23 -21 -22 -22 -33 -22 -180 0 -86 -2 -157 -5 -157 -3 0 -150 86 -327 191
-177 104 -333 192 -347 195 -15 3 -36 -2 -48 -11z"/>
</g>
</svg>
