<?xml version="1.0" encoding="UTF-8" standalone="no"?>
<svg
   xmlns:dc="http://purl.org/dc/elements/1.1/"
   xmlns:cc="http://creativecommons.org/ns#"
   xmlns:rdf="http://www.w3.org/1999/02/22-rdf-syntax-ns#"
   xmlns:svg="http://www.w3.org/2000/svg"
   xmlns="http://www.w3.org/2000/svg"
   xmlns:sodipodi="http://sodipodi.sourceforge.net/DTD/sodipodi-0.dtd"
   xmlns:inkscape="http://www.inkscape.org/namespaces/inkscape"
   version="1.0"
   width="264.000000pt"
   height="264.000000pt"
   viewBox="0 0 264.000000 264.000000"
   preserveAspectRatio="xMidYMid meet"
   id="svg3938"
   inkscape:version="0.48.4 r9939"
   sodipodi:docname="incbackOn.svg">
  <defs
     id="defs3948" />
  <sodipodi:namedview
     pagecolor="#ffffff"
     bordercolor="#666666"
     borderopacity="1"
     objecttolerance="10"
     gridtolerance="10"
     guidetolerance="10"
     inkscape:pageopacity="0"
     inkscape:pageshadow="2"
     inkscape:window-width="1863"
     inkscape:window-height="1056"
     id="namedview3946"
     showgrid="false"
     inkscape:zoom="0.71515152"
     inkscape:cx="-141.92797"
     inkscape:cy="165"
     inkscape:window-x="57"
     inkscape:window-y="24"
     inkscape:window-maximized="1"
     inkscape:current-layer="svg3938" />
  <metadata
     id="metadata3940">
Created by potrace 1.11, written by Peter Selinger 2001-2013
<rdf:RDF>
  <cc:Work
     rdf:about="">
    <dc:format>image/svg+xml</dc:format>
    <dc:type
       rdf:resource="http://purl.org/dc/dcmitype/StillImage" />
  </cc:Work>
</rdf:RDF>
</metadata>
  <g
     transform="translate(0.000000,264.000000) scale(0.100000,-0.100000)"
     fill="#000000"
     stroke="none"
     id="g3942"
     style="fill:#ae3030;fill-opacity:1">
    <path
       d="M1254 1759 c-65 -40 -236 -141 -379 -226 -143 -85 -268 -162 -277 -170 -29 -26 -23 -69 15 -96 17 -13 135 -84 260 -156 125 -73 277 -163 338 -201 133 -85 162 -100 189 -100 32 0 40 38 40 186 l0 135 23 -6 c37 -11 233 -123 389 -222 147 -93 173 -104 196 -81 17 17 17 979 0 996 -21 21 -38 14 -167 -65 -135 -83 -421 -243 -433 -243 -5 0 -8 58 -8 129 0 146 -10 191 -44 191 -12 0 -76 -32 -142 -71z"
       id="path3944"
       style="fill:#ae3030;fill-opacity:1" />
  </g>
</svg>
