<?xml version="1.0" standalone="no"?>
<!DOCTYPE svg PUBLIC "-//W3C//DTD SVG 20010904//EN"
 "http://www.w3.org/TR/2001/REC-SVG-20010904/DTD/svg10.dtd">
<svg version="1.0" xmlns="http://www.w3.org/2000/svg"
 width="264.000000pt" height="264.000000pt" viewBox="0 0 264.000000 264.000000"
 preserveAspectRatio="xMidYMid meet">
<metadata>
Created by potrace 1.11, written by Peter Selinger 2001-2013
</metadata>
<g transform="translate(0.000000,264.000000) scale(0.100000,-0.100000)"
fill="#000000" stroke="none">
<path d="M1569 2274 l-46 -26 17 -71 c40 -172 166 -339 335 -444 82 -52 251
-111 267 -95 20 20 48 131 48 190 0 183 -108 347 -286 433 -78 38 -84 39 -185
39 -93 0 -109 -3 -150 -26z"/>
<path d="M1400 2103 c-18 -36 -25 -71 -28 -139 -4 -83 -2 -96 27 -165 63 -151
192 -267 333 -302 40 -9 91 -17 113 -17 51 1 152 25 171 40 22 19 17 35 -12
38 -34 3 -182 73 -236 113 -58 41 -136 115 -178 169 -34 43 -110 166 -110 179
0 9 -46 120 -52 127 -3 2 -16 -17 -28 -43z"/>
<path d="M1169 1589 c-68 -83 -134 -163 -146 -177 -12 -15 -50 -61 -85 -103
-35 -41 -79 -95 -98 -119 -19 -24 -71 -87 -115 -140 -153 -183 -157 -189 -163
-236 -3 -30 -11 -48 -23 -55 -10 -5 -37 -36 -59 -69 -37 -54 -40 -64 -40 -125
0 -76 14 -109 64 -153 44 -38 100 -54 187 -55 120 0 211 45 384 192 50 42 95
79 100 83 6 4 24 19 41 32 16 14 57 37 90 52 50 23 72 27 144 27 73 0 97 -4
170 -34 47 -19 112 -52 145 -74 57 -38 180 -153 237 -223 62 -76 167 -3 111
78 -57 84 -201 217 -307 284 -33 21 -100 54 -150 72 -84 32 -99 35 -207 35
-112 1 -118 0 -193 -35 -83 -38 -112 -58 -251 -177 -175 -148 -251 -182 -370
-165 -77 12 -84 59 -20 133 31 36 40 41 64 37 52 -11 39 -20 706 531 61 50
140 115 178 145 37 29 67 57 67 61 0 3 -26 19 -57 35 -75 35 -209 169 -243
241 -14 29 -28 53 -31 53 -3 0 -62 -68 -130 -151z"/>
</g>
</svg>
