<?xml version="1.0" encoding="UTF-8" standalone="no"?>
<svg
   xmlns:dc="http://purl.org/dc/elements/1.1/"
   xmlns:cc="http://creativecommons.org/ns#"
   xmlns:rdf="http://www.w3.org/1999/02/22-rdf-syntax-ns#"
   xmlns:svg="http://www.w3.org/2000/svg"
   xmlns="http://www.w3.org/2000/svg"
   xmlns:sodipodi="http://sodipodi.sourceforge.net/DTD/sodipodi-0.dtd"
   xmlns:inkscape="http://www.inkscape.org/namespaces/inkscape"
   version="1.0"
   width="264.000000pt"
   height="264.000000pt"
   viewBox="0 0 264.000000 264.000000"
   preserveAspectRatio="xMidYMid meet"
   id="svg2"
   inkscape:version="0.48.4 r9939"
   sodipodi:docname="audfileOn.svg">
  <defs
     id="defs14" />
  <sodipodi:namedview
     pagecolor="#ffffff"
     bordercolor="#666666"
     borderopacity="1"
     objecttolerance="10"
     gridtolerance="10"
     guidetolerance="10"
     inkscape:pageopacity="0"
     inkscape:pageshadow="2"
     inkscape:window-width="1863"
     inkscape:window-height="1056"
     id="namedview12"
     showgrid="false"
     inkscape:zoom="0.71515152"
     inkscape:cx="-141.92797"
     inkscape:cy="165"
     inkscape:window-x="57"
     inkscape:window-y="24"
     inkscape:window-maximized="1"
     inkscape:current-layer="svg2" />
  <metadata
     id="metadata4">
Created by potrace 1.11, written by Peter Selinger 2001-2013
<rdf:RDF>
  <cc:Work
     rdf:about="">
    <dc:format>image/svg+xml</dc:format>
    <dc:type
       rdf:resource="http://purl.org/dc/dcmitype/StillImage" />
  </cc:Work>
</rdf:RDF>
</metadata>
  <g
     transform="translate(0.000000,264.000000) scale(0.100000,-0.100000)"
     fill="#000000"
     stroke="none"
     id="g6"
     style="fill:#ae3030;fill-opacity:1">
    <path
       d="M440 1320 l0 -1000 875 0 875 0 0 713 0 712 -288 288 -287 287 -588 0 -587 0 0 -1000z m1287 538 l213 -213 0 -537 0 -538 -625 0 -625 0 0 750 0 750 412 0 413 0 212 -212z"
       id="path8"
       style="fill:#ae3030;fill-opacity:1" />
    <path
       d="M1233 1928 l-43 -9 0 -438 0 -438 -52 13 c-66 18 -81 17 -153 -1 -186 -49 -224 -229 -67 -318 61 -34 160 -47 227 -28 59 15 120 59 144 101 20 36 21 51 21 404 l0 366 35 0 c105 0 237 -98 301 -223 l36 -72 -6 65 c-23 246 -160 444 -329 475 l-37 7 0 54 c0 60 0 60 -77 42z"
       id="path10"
       style="fill:#ae3030;fill-opacity:1" />
  </g>
</svg>
