<?xml version="1.0" standalone="no"?>
<!DOCTYPE svg PUBLIC "-//W3C//DTD SVG 20010904//EN"
 "http://www.w3.org/TR/2001/REC-SVG-20010904/DTD/svg10.dtd">
<svg version="1.0" xmlns="http://www.w3.org/2000/svg"
 width="264.000000pt" height="264.000000pt" viewBox="0 0 264.000000 264.000000"
 preserveAspectRatio="xMidYMid meet">
<metadata>
Created by potrace 1.11, written by Peter Selinger 2001-2013
</metadata>
<g transform="translate(0.000000,264.000000) scale(0.100000,-0.100000)"
fill="#000000" stroke="none">
<path d="M1215 1744 c-88 -53 -259 -155 -380 -226 -121 -71 -230 -139 -242
-151 -29 -26 -29 -68 0 -94 12 -11 132 -85 267 -164 135 -78 293 -173 353
-211 168 -106 182 -111 211 -82 13 13 16 42 16 160 0 110 3 144 13 144 19 0
235 -122 385 -217 73 -47 147 -90 164 -97 27 -10 32 -8 49 13 19 23 19 42 17
513 -3 529 -2 516 -56 503 -13 -3 -71 -35 -130 -72 -130 -80 -393 -229 -421
-238 -21 -6 -21 -3 -21 139 0 152 -7 176 -48 176 -9 0 -89 -43 -177 -96z"/>
</g>
</svg>
