<?xml version="1.0" encoding="UTF-8" standalone="no"?>
<svg
   xmlns:dc="http://purl.org/dc/elements/1.1/"
   xmlns:cc="http://creativecommons.org/ns#"
   xmlns:rdf="http://www.w3.org/1999/02/22-rdf-syntax-ns#"
   xmlns:svg="http://www.w3.org/2000/svg"
   xmlns="http://www.w3.org/2000/svg"
   xmlns:sodipodi="http://sodipodi.sourceforge.net/DTD/sodipodi-0.dtd"
   xmlns:inkscape="http://www.inkscape.org/namespaces/inkscape"
   version="1.0"
   width="264.000000pt"
   height="264.000000pt"
   viewBox="0 0 264.000000 264.000000"
   preserveAspectRatio="xMidYMid meet"
   id="svg3950"
   inkscape:version="0.48.4 r9939"
   sodipodi:docname="incforwardOn.svg">
  <defs
     id="defs3960" />
  <sodipodi:namedview
     pagecolor="#ffffff"
     bordercolor="#666666"
     borderopacity="1"
     objecttolerance="10"
     gridtolerance="10"
     guidetolerance="10"
     inkscape:pageopacity="0"
     inkscape:pageshadow="2"
     inkscape:window-width="1863"
     inkscape:window-height="1056"
     id="namedview3958"
     showgrid="false"
     inkscape:zoom="0.71515152"
     inkscape:cx="-141.92797"
     inkscape:cy="165"
     inkscape:window-x="57"
     inkscape:window-y="24"
     inkscape:window-maximized="1"
     inkscape:current-layer="svg3950" />
  <metadata
     id="metadata3952">
Created by potrace 1.11, written by Peter Selinger 2001-2013
<rdf:RDF>
  <cc:Work
     rdf:about="">
    <dc:format>image/svg+xml</dc:format>
    <dc:type
       rdf:resource="http://purl.org/dc/dcmitype/StillImage" />
  </cc:Work>
</rdf:RDF>
</metadata>
  <g
     transform="translate(0.000000,264.000000) scale(0.100000,-0.100000)"
     fill="#000000"
     stroke="none"
     id="g3954"
     style="fill:#ae3030;fill-opacity:1">
    <path
       d="M559 1813 c-11 -13 -14 -104 -14 -495 0 -463 1 -480 19 -494 11 -8 29 -14 39 -14 20 0 263 138 453 257 56 35 104 63 108 63 3 0 6 -63 6 -140 0 -127 2 -142 20 -160 11 -11 31 -20 43 -20 21 0 234 118 676 375 165 97 186 118 161 162 -14 24 -257 171 -652 394 -235 133 -248 128 -248 -90 0 -79 -3 -141 -7 -139 -5 2 -107 62 -228 134 -308 184 -309 184 -337 184 -14 0 -32 -7 -39 -17z"
       id="path3956"
       style="fill:#ae3030;fill-opacity:1" />
  </g>
</svg>
