<?xml version="1.0" encoding="UTF-8" standalone="no"?>
<svg
   xmlns:dc="http://purl.org/dc/elements/1.1/"
   xmlns:cc="http://creativecommons.org/ns#"
   xmlns:rdf="http://www.w3.org/1999/02/22-rdf-syntax-ns#"
   xmlns:svg="http://www.w3.org/2000/svg"
   xmlns="http://www.w3.org/2000/svg"
   xmlns:sodipodi="http://sodipodi.sourceforge.net/DTD/sodipodi-0.dtd"
   xmlns:inkscape="http://www.inkscape.org/namespaces/inkscape"
   version="1.0"
   width="264.000000pt"
   height="264.000000pt"
   viewBox="0 0 264.000000 264.000000"
   preserveAspectRatio="xMidYMid meet"
   id="svg3978"
   inkscape:version="0.48.4 r9939"
   sodipodi:docname="removeSelected.svg">
  <defs
     id="defs3990" />
  <sodipodi:namedview
     pagecolor="#ffffff"
     bordercolor="#666666"
     borderopacity="1"
     objecttolerance="10"
     gridtolerance="10"
     guidetolerance="10"
     inkscape:pageopacity="0"
     inkscape:pageshadow="2"
     inkscape:window-width="1863"
     inkscape:window-height="1056"
     id="namedview3988"
     showgrid="false"
     inkscape:zoom="2.8606061"
     inkscape:cx="110.84594"
     inkscape:cy="192.9661"
     inkscape:window-x="57"
     inkscape:window-y="24"
     inkscape:window-maximized="1"
     inkscape:current-layer="svg3978" />
  <metadata
     id="metadata3980">
Created by potrace 1.11, written by Peter Selinger 2001-2013
<rdf:RDF>
  <cc:Work
     rdf:about="">
    <dc:format>image/svg+xml</dc:format>
    <dc:type
       rdf:resource="http://purl.org/dc/dcmitype/StillImage" />
    <dc:title></dc:title>
  </cc:Work>
</rdf:RDF>
</metadata>
  <path
     inkscape:connector-curvature="0"
     style="fill:#000000;fill-opacity:1;stroke:none"
     id="path3986"
     d="m 185.93896,153.72511 c -4.24023,-1.7399 -4.83909,-1.77146 -53.9361,-1.70867 -41.097508,0.0526 -45.599442,0.12295 -48.816885,0.64421 -5.127247,0.81457 -7.077833,2.30382 -7.181441,5.34212 -0.09699,2.84436 1.35221,4.32927 5.317807,5.32614 2.775577,0.70752 3.075558,0.70713 50.172699,0.6469 51.99684,-0.0665 51.69686,-0.0661 54.8628,-2.00941 1.02199,-0.64773 1.56495,-1.90894 1.641,-4.13917 0.0959,-2.81204 -0.1865,-3.32881 -2.05988,-4.10212 z" />
  <path
     inkscape:connector-curvature="0"
     style="fill:#000000;fill-opacity:1;stroke:none"
     id="path3986-9"
     d="m 185.93901,173.72511 c -4.24023,-1.7399 -4.8391,-1.77146 -53.93612,-1.70867 -41.097532,0.0526 -45.599467,0.12295 -48.816912,0.64421 -5.127249,0.81457 -7.077836,2.30382 -7.181444,5.34212 -0.09699,2.84436 1.352211,4.32927 5.31781,5.32614 2.775578,0.70752 3.075558,0.70713 50.172726,0.6469 51.99686,-0.0665 51.69688,-0.0661 54.86282,-2.00941 1.02198,-0.64773 1.56494,-1.90894 1.641,-4.13917 0.0959,-2.81204 -0.1865,-3.32881 -2.05988,-4.10212 z" />
  <path
     inkscape:connector-curvature="0"
     style="fill:#000000;fill-opacity:1;stroke:none"
     id="path3986-3"
     d="m 185.93896,112.93002 c -4.24023,-1.74 -4.83909,-1.78 -53.9361,-1.71 -41.097506,0.1 -45.599442,0.12 -48.816885,0.64 -5.127247,0.82 -7.077833,2.3 -7.181441,5.34 -0.09699,2.85 1.35221,4.33 5.317807,5.33 2.775577,0.71 3.075558,0.71 50.172699,0.65 51.99684,-0.1 51.69686,-0.1 54.8628,-2.01 1.02199,-0.65 1.56495,-1.91 1.641,-4.14 0.0959,-2.81 -0.1865,-3.33 -2.05988,-4.1 z" />
  <path
     inkscape:connector-curvature="0"
     style="fill:#000000;fill-opacity:1;stroke:none"
     id="path3986-9-6"
     d="m 185.93901,132.93002 c -4.24023,-1.74 -4.8391,-1.78 -53.93612,-1.71 -41.097529,0.1 -45.599468,0.12 -48.816912,0.64 -5.127249,0.82 -7.077836,2.3 -7.181444,5.34 -0.09699,2.85 1.352211,4.33 5.31781,5.33 2.775578,0.71 3.075558,0.71 50.172726,0.65 51.99686,-0.1 51.69688,-0.1 54.86282,-2.01 1.02198,-0.65 1.56494,-1.91 1.641,-4.14 0.0959,-2.81 -0.1865,-3.33 -2.05988,-4.1 z" />
  <path
     inkscape:connector-curvature="0"
     style="fill:#000000;fill-opacity:1;stroke:none"
     id="path3986-3-6"
     d="m 185.93896,73.726012 c -4.24023,-1.740004 -4.83909,-1.780004 -53.9361,-1.710004 -41.097501,0.1 -45.599441,0.12 -48.816885,0.64 -5.127247,0.820004 -7.077833,2.300004 -7.181441,5.340004 -0.09699,2.85 1.35221,4.33 5.317807,5.33 2.775577,0.71 3.075558,0.71 50.172699,0.65 51.99684,-0.1 51.69686,-0.1 54.8628,-2.01 1.02199,-0.65 1.56495,-1.91 1.641,-4.14 0.0959,-2.81 -0.1865,-3.33 -2.05988,-4.1 z" />
  <path
     inkscape:connector-curvature="0"
     style="fill:#000000;fill-opacity:1;stroke:none"
     id="path3986-9-6-6"
     d="m 185.93901,93.726016 c -4.24023,-1.740004 -4.8391,-1.780004 -53.93612,-1.71 -41.097524,0.1 -45.599467,0.12 -48.816912,0.64 -5.127249,0.82 -7.077836,2.3 -7.181444,5.340004 -0.09699,2.85 1.352211,4.33 5.31781,5.33 2.775578,0.71 3.075558,0.71 50.172726,0.65 51.99686,-0.1 51.69688,-0.1 54.86282,-2.01 1.02198,-0.65 1.56494,-1.91 1.641,-4.14 0.0959,-2.810004 -0.1865,-3.330004 -2.05988,-4.100004 z" />
</svg>
