<?xml version="1.0" encoding="UTF-8" standalone="no"?>
<svg
   xmlns:dc="http://purl.org/dc/elements/1.1/"
   xmlns:cc="http://creativecommons.org/ns#"
   xmlns:rdf="http://www.w3.org/1999/02/22-rdf-syntax-ns#"
   xmlns:svg="http://www.w3.org/2000/svg"
   xmlns="http://www.w3.org/2000/svg"
   xmlns:sodipodi="http://sodipodi.sourceforge.net/DTD/sodipodi-0.dtd"
   xmlns:inkscape="http://www.inkscape.org/namespaces/inkscape"
   version="1.0"
   width="413.000000pt"
   height="413.000000pt"
   viewBox="0 0 413.000000 413.000000"
   preserveAspectRatio="xMidYMid meet"
   id="svg2"
   inkscape:version="0.48.4 r9939"
   sodipodi:docname="loopOnOne.svg">
  <defs
     id="defs14" />
  <sodipodi:namedview
     pagecolor="#ffffff"
     bordercolor="#666666"
     borderopacity="1"
     objecttolerance="10"
     gridtolerance="10"
     guidetolerance="10"
     inkscape:pageopacity="0"
     inkscape:pageshadow="2"
     inkscape:window-width="1863"
     inkscape:window-height="1056"
     id="namedview12"
     showgrid="false"
     inkscape:zoom="0.45714286"
     inkscape:cx="-222.03125"
     inkscape:cy="258.125"
     inkscape:window-x="57"
     inkscape:window-y="24"
     inkscape:window-maximized="1"
     inkscape:current-layer="g6" />
  <metadata
     id="metadata4">
Created by potrace 1.11, written by Peter Selinger 2001-2013
<rdf:RDF>
  <cc:Work
     rdf:about="">
    <dc:format>image/svg+xml</dc:format>
    <dc:type
       rdf:resource="http://purl.org/dc/dcmitype/StillImage" />
  </cc:Work>
</rdf:RDF>
</metadata>
  <g
     transform="translate(0.000000,413.000000) scale(0.100000,-0.100000)"
     fill="#000000"
     stroke="none"
     id="g6">
    <path
       d="M1609 2989 c5 -13 27 -62 50 -108 23 -47 41 -90 41 -96 0 -8 -76 -15 -247 -22 -207 -9 -260 -15 -318 -33 -178 -56 -321 -181 -410 -358 -134 -268 -101 -632 80 -871 95 -125 265 -236 399 -260 81 -15 1536 -15 1626 0 84 13 195 58 280 113 272 176 391 493 314 835 -33 148 -158 326 -299 426 -98 70 -243 126 -365 140 -30 4 -64 9 -75 11 -23 5 -10 -2 163 -93 76 -40 120 -69 115 -74 -5 -5 -73 -36 -151 -68 l-142 -58 79 -17 c168 -36 293 -130 363 -274 31 -64 32 -72 33 -192 0 -116 -2 -129 -28 -185 -61 -130 -154 -216 -281 -259 -59 -20 -84 -21 -788 -24 -810 -4 -804 -4 -904 63 -235 155 -275 554 -78 765 86 92 199 120 481 120 121 0 153 -3 153 -13 0 -8 -23 -60 -50 -117 -28 -56 -48 -105 -45 -108 7 -7 133 30 255 75 150 55 743 292 760 303 13 9 13 11 0 20 -45 30 -929 368 -987 377 -32 5 -33 5 -24 -18z"
       id="path8"
       style="fill:#ae3030;fill-opacity:1" />
    <path
       d="M2025 2211 l-90 -27 -3 -42 c-2 -23 -2 -42 0 -42 2 0 28 7 58 15 30 8 58 15 63 15 4 0 7 -88 7 -195 l0 -195 48 0 47 0 0 250 c0 290 15 265 -130 221z"
       id="path10"
       style="fill:#ae3030;fill-opacity:1" />
  </g>
</svg>
