<?xml version="1.0" encoding="UTF-8" standalone="no"?>
<svg
   xmlns:dc="http://purl.org/dc/elements/1.1/"
   xmlns:cc="http://creativecommons.org/ns#"
   xmlns:rdf="http://www.w3.org/1999/02/22-rdf-syntax-ns#"
   xmlns:svg="http://www.w3.org/2000/svg"
   xmlns="http://www.w3.org/2000/svg"
   xmlns:sodipodi="http://sodipodi.sourceforge.net/DTD/sodipodi-0.dtd"
   xmlns:inkscape="http://www.inkscape.org/namespaces/inkscape"
   version="1.0"
   width="330.000000pt"
   height="330.000000pt"
   viewBox="0 0 330.000000 330.000000"
   preserveAspectRatio="xMidYMid meet"
   id="svg2"
   inkscape:version="0.48.4 r9939"
   sodipodi:docname="loop.svg">
  <defs
     id="defs12" />
  <sodipodi:namedview
     pagecolor="#ffffff"
     bordercolor="#666666"
     borderopacity="1"
     objecttolerance="10"
     gridtolerance="10"
     guidetolerance="10"
     inkscape:pageopacity="0"
     inkscape:pageshadow="2"
     inkscape:window-width="840"
     inkscape:window-height="480"
     id="namedview10"
     showgrid="false"
     inkscape:zoom="0.57212121"
     inkscape:cx="206.25"
     inkscape:cy="66.419492"
     inkscape:window-x="67"
     inkscape:window-y="34"
     inkscape:window-maximized="0"
     inkscape:current-layer="g6" />
  <metadata
     id="metadata4">
Created by potrace 1.11, written by Peter Selinger 2001-2013
<rdf:RDF>
  <cc:Work
     rdf:about="">
    <dc:format>image/svg+xml</dc:format>
    <dc:type
       rdf:resource="http://purl.org/dc/dcmitype/StillImage" />
    <dc:title></dc:title>
  </cc:Work>
</rdf:RDF>
</metadata>
  <g
     transform="translate(0.000000,330.000000) scale(0.100000,-0.100000)"
     fill="#000000"
     stroke="none"
     id="g6">
    <path
       d="M1280 2400 c0 -5 16 -40 34 -77 19 -37 38 -78 41 -90 l6 -23 -168 0 c-107 0 -192 -6 -236 -15 -276 -58 -461 -319 -444 -625 7 -110 26 -189 67 -274 65 -136 195 -252 335 -298 70 -23 70 -23 695 -23 564 0 631 2 690 18 218 58 381 215 441 425 23 82 25 229 4 320 -40 168 -171 329 -326 401 -90 41 -139 55 -234 67 l-60 7 120 -62 c66 -34 124 -66 128 -70 4 -4 -49 -30 -118 -56 -69 -26 -124 -49 -123 -51 2 -1 29 -7 61 -13 137 -25 241 -101 294 -216 25 -53 28 -71 28 -160 0 -93 -2 -105 -33 -167 -34 -70 -87 -124 -156 -160 -86 -44 -139 -48 -722 -48 -527 0 -555 1 -618 20 -221 69 -310 407 -160 613 73 100 153 127 376 127 l159 0 -6 -22 c-8 -26 -45 -102 -66 -135 -31 -50 2 -46 182 20 175 65 630 245 638 253 2 2 2 7 -1 10 -20 19 -785 314 -816 314 -7 0 -12 -4 -12 -10z"
       id="path8"
       style="stroke:#ae3030;stroke-opacity:1;fill:#ae3030;fill-opacity:1" />
  </g>
</svg>
