<?xml version="1.0" standalone="no"?>
<!DOCTYPE svg PUBLIC "-//W3C//DTD SVG 20010904//EN"
 "http://www.w3.org/TR/2001/REC-SVG-20010904/DTD/svg10.dtd">
<svg version="1.0" xmlns="http://www.w3.org/2000/svg"
 width="330.000000pt" height="330.000000pt" viewBox="0 0 330.000000 330.000000"
 preserveAspectRatio="xMidYMid meet">
<metadata>
Created by potrace 1.11, written by Peter Selinger 2001-2013
</metadata>
<g transform="translate(0.000000,330.000000) scale(0.100000,-0.100000)"
fill="#000000" stroke="none">
<path d="M1280 2400 c0 -5 16 -40 34 -77 19 -37 38 -78 41 -90 l6 -23 -168 0
c-107 0 -192 -6 -236 -15 -276 -58 -461 -319 -444 -625 7 -110 26 -189 67
-274 65 -136 195 -252 335 -298 70 -23 70 -23 695 -23 564 0 631 2 690 18 218
58 381 215 441 425 23 82 25 229 4 320 -40 168 -171 329 -326 401 -90 41 -139
55 -234 67 l-60 7 120 -62 c66 -34 124 -66 128 -70 4 -4 -49 -30 -118 -56 -69
-26 -124 -49 -123 -51 2 -1 29 -7 61 -13 137 -25 241 -101 294 -216 25 -53 28
-71 28 -160 0 -93 -2 -105 -33 -167 -34 -70 -87 -124 -156 -160 -86 -44 -139
-48 -722 -48 -527 0 -555 1 -618 20 -221 69 -310 407 -160 613 73 100 153 127
376 127 l159 0 -6 -22 c-8 -26 -45 -102 -66 -135 -31 -50 2 -46 182 20 175 65
630 245 638 253 2 2 2 7 -1 10 -20 19 -785 314 -816 314 -7 0 -12 -4 -12 -10z"/>
</g>
</svg>
