<?xml version="1.0" standalone="no"?>
<!DOCTYPE svg PUBLIC "-//W3C//DTD SVG 20010904//EN"
 "http://www.w3.org/TR/2001/REC-SVG-20010904/DTD/svg10.dtd">
<svg version="1.0" xmlns="http://www.w3.org/2000/svg"
 width="264.000000pt" height="264.000000pt" viewBox="0 0 264.000000 264.000000"
 preserveAspectRatio="xMidYMid meet">
<metadata>
Created by potrace 1.11, written by Peter Selinger 2001-2013
</metadata>
<g transform="translate(0.000000,264.000000) scale(0.100000,-0.100000)"
fill="#000000" stroke="none">
<path d="M883 1875 c-18 -8 -42 -29 -53 -47 -20 -32 -20 -46 -18 -516 l3 -484
37 -34 38 -34 114 0 115 0 35 34 36 33 0 488 c0 540 1 528 -66 560 -42 20
-196 20 -241 0z"/>
<path d="M1514 1880 c-11 -4 -33 -22 -47 -40 l-27 -32 0 -488 0 -489 35 -36
36 -35 113 0 c100 0 116 2 140 21 57 45 56 38 56 546 0 452 -1 469 -20 501
-11 18 -36 40 -55 48 -38 15 -195 19 -231 4z"/>
</g>
</svg>
