<?xml version="1.0" encoding="UTF-8" standalone="no"?>
<svg
   xmlns:dc="http://purl.org/dc/elements/1.1/"
   xmlns:cc="http://creativecommons.org/ns#"
   xmlns:rdf="http://www.w3.org/1999/02/22-rdf-syntax-ns#"
   xmlns:svg="http://www.w3.org/2000/svg"
   xmlns="http://www.w3.org/2000/svg"
   xmlns:sodipodi="http://sodipodi.sourceforge.net/DTD/sodipodi-0.dtd"
   xmlns:inkscape="http://www.inkscape.org/namespaces/inkscape"
   version="1.0"
   width="264.000000pt"
   height="264.000000pt"
   viewBox="0 0 264.000000 264.000000"
   preserveAspectRatio="xMidYMid meet"
   id="svg3978"
   inkscape:version="0.48.4 r9939"
   sodipodi:docname="pauseOn.svg">
  <defs
     id="defs3990" />
  <sodipodi:namedview
     pagecolor="#ffffff"
     bordercolor="#666666"
     borderopacity="1"
     objecttolerance="10"
     gridtolerance="10"
     guidetolerance="10"
     inkscape:pageopacity="0"
     inkscape:pageshadow="2"
     inkscape:window-width="1863"
     inkscape:window-height="1056"
     id="namedview3988"
     showgrid="false"
     inkscape:zoom="0.71515152"
     inkscape:cx="-141.92797"
     inkscape:cy="165"
     inkscape:window-x="57"
     inkscape:window-y="24"
     inkscape:window-maximized="1"
     inkscape:current-layer="svg3978" />
  <metadata
     id="metadata3980">
Created by potrace 1.11, written by Peter Selinger 2001-2013
<rdf:RDF>
  <cc:Work
     rdf:about="">
    <dc:format>image/svg+xml</dc:format>
    <dc:type
       rdf:resource="http://purl.org/dc/dcmitype/StillImage" />
  </cc:Work>
</rdf:RDF>
</metadata>
  <g
     transform="translate(0.000000,264.000000) scale(0.100000,-0.100000)"
     fill="#000000"
     stroke="none"
     id="g3982"
     style="fill:#ae3030;fill-opacity:1">
    <path
       d="M878 1855 c-58 -33 -58 -31 -58 -548 0 -471 0 -474 22 -502 31 -40 77 -55 165 -55 94 0 140 19 165 70 16 32 18 77 18 488 0 483 -1 494 -50 537 -19 17 -38 20 -129 23 -80 1 -113 -2 -133 -13z"
       id="path3984"
       style="fill:#ae3030;fill-opacity:1" />
    <path
       d="M1495 1848 c-54 -43 -55 -49 -55 -540 0 -411 2 -456 18 -488 25 -51 71 -70 165 -70 88 0 134 15 165 55 22 28 22 31 22 502 0 520 0 517 -60 548 -20 10 -59 15 -128 15 -87 0 -103 -3 -127 -22z"
       id="path3986"
       style="fill:#ae3030;fill-opacity:1" />
  </g>
</svg>
