<?xml version="1.0" encoding="UTF-8" standalone="no"?>
<svg
   xmlns:dc="http://purl.org/dc/elements/1.1/"
   xmlns:cc="http://creativecommons.org/ns#"
   xmlns:rdf="http://www.w3.org/1999/02/22-rdf-syntax-ns#"
   xmlns:svg="http://www.w3.org/2000/svg"
   xmlns="http://www.w3.org/2000/svg"
   xmlns:sodipodi="http://sodipodi.sourceforge.net/DTD/sodipodi-0.dtd"
   xmlns:inkscape="http://www.inkscape.org/namespaces/inkscape"
   version="1.0"
   width="264.000000pt"
   height="264.000000pt"
   viewBox="0 0 264.000000 264.000000"
   preserveAspectRatio="xMidYMid meet"
   id="svg3978"
   inkscape:version="0.48.4 r9939"
   sodipodi:docname="pauseOn.svg">
  <defs
     id="defs3990" />
  <sodipodi:namedview
     pagecolor="#ffffff"
     bordercolor="#666666"
     borderopacity="1"
     objecttolerance="10"
     gridtolerance="10"
     guidetolerance="10"
     inkscape:pageopacity="0"
     inkscape:pageshadow="2"
     inkscape:window-width="931"
     inkscape:window-height="1028"
     id="namedview3988"
     showgrid="false"
     inkscape:zoom="2.8606061"
     inkscape:cx="110.84594"
     inkscape:cy="206.94915"
     inkscape:window-x="67"
     inkscape:window-y="24"
     inkscape:window-maximized="0"
     inkscape:current-layer="svg3978" />
  <metadata
     id="metadata3980">
Created by potrace 1.11, written by Peter Selinger 2001-2013
<rdf:RDF>
  <cc:Work
     rdf:about="">
    <dc:format>image/svg+xml</dc:format>
    <dc:type
       rdf:resource="http://purl.org/dc/dcmitype/StillImage" />
    <dc:title></dc:title>
  </cc:Work>
</rdf:RDF>
</metadata>
  <path
     inkscape:connector-curvature="0"
     style="fill:#000000;fill-opacity:1;stroke:none"
     id="path3984"
     d="m 111.8,78.5 c -5.8,3.3 -5.8,3.1 -5.8,54.8 0,47.1 0,47.4 2.2,50.2 3.1,4 7.7,5.5 16.5,5.5 9.4,0 14,-1.9 16.5,-7 1.6,-3.2 1.8,-7.7 1.8,-48.8 0,-48.3 -0.1,-49.4 -5,-53.7 -1.9,-1.7 -3.8,-2 -12.9,-2.3 -8,-0.1 -11.3,0.2 -13.3,1.3 z" />
  <path
     inkscape:connector-curvature="0"
     style="fill:#000000;fill-opacity:1;stroke:none"
     id="path3986"
     d="m 178.04001,119.78614 c -4.24023,-5.38354 -4.83909,-5.48118 -53.9361,-5.28691 -41.097505,0.16262 -45.599439,0.38044 -48.816882,1.99328 -5.127247,2.52043 -7.077833,7.12842 -7.181441,16.52942 -0.09699,8.80091 1.35221,13.39545 5.317807,16.47995 2.775577,2.18916 3.075558,2.18796 50.172696,2.0016 51.99684,-0.20574 51.69686,-0.20456 54.8628,-6.21745 1.02199,-2.00417 1.56495,-5.90655 1.641,-12.80727 0.0959,-8.70091 -0.1865,-10.29989 -2.05988,-12.69262 z" />
</svg>
