<?xml version="1.0" standalone="no"?>
<!DOCTYPE svg PUBLIC "-//W3C//DTD SVG 20010904//EN"
 "http://www.w3.org/TR/2001/REC-SVG-20010904/DTD/svg10.dtd">
<svg version="1.0" xmlns="http://www.w3.org/2000/svg"
 width="264.000000pt" height="264.000000pt" viewBox="0 0 264.000000 264.000000"
 preserveAspectRatio="xMidYMid meet">
<metadata>
Created by potrace 1.11, written by Peter Selinger 2001-2013
</metadata>
<g transform="translate(0.000000,264.000000) scale(0.100000,-0.100000)"
fill="#000000" stroke="none">
<path d="M440 1320 l0 -1000 875 0 875 0 0 718 0 717 -283 283 -282 282 -593
0 -592 0 0 -1000z m1282 533 l218 -218 0 -532 0 -533 -625 0 -625 0 0 750 0
750 407 0 408 0 217 -217z"/>
<path d="M1243 1938 l-53 -10 0 -438 0 -439 -32 10 c-18 5 -64 9 -103 9 -175
0 -290 -132 -226 -258 23 -45 43 -63 98 -91 128 -64 324 -16 373 92 18 39 20
68 20 404 l0 362 38 -6 c144 -21 283 -162 318 -323 l12 -55 1 73 c2 140 -47
309 -119 411 -59 83 -159 151 -225 151 -24 0 -25 2 -25 60 0 42 -4 60 -12 59
-7 -1 -37 -6 -65 -11z"/>
</g>
</svg>
