<?xml version="1.0" encoding="UTF-8" standalone="no"?>
<svg
   xmlns:dc="http://purl.org/dc/elements/1.1/"
   xmlns:cc="http://creativecommons.org/ns#"
   xmlns:rdf="http://www.w3.org/1999/02/22-rdf-syntax-ns#"
   xmlns:svg="http://www.w3.org/2000/svg"
   xmlns="http://www.w3.org/2000/svg"
   xmlns:sodipodi="http://sodipodi.sourceforge.net/DTD/sodipodi-0.dtd"
   xmlns:inkscape="http://www.inkscape.org/namespaces/inkscape"
   version="1.0"
   width="264.000000pt"
   height="264.000000pt"
   viewBox="0 0 264.000000 264.000000"
   preserveAspectRatio="xMidYMid meet"
   id="svg3926"
   inkscape:version="0.48.4 r9939"
   sodipodi:docname="forwardOn.svg">
  <defs
     id="defs3936" />
  <sodipodi:namedview
     pagecolor="#ffffff"
     bordercolor="#666666"
     borderopacity="1"
     objecttolerance="10"
     gridtolerance="10"
     guidetolerance="10"
     inkscape:pageopacity="0"
     inkscape:pageshadow="2"
     inkscape:window-width="1863"
     inkscape:window-height="1056"
     id="namedview3934"
     showgrid="false"
     inkscape:zoom="0.71515152"
     inkscape:cx="-141.92797"
     inkscape:cy="165"
     inkscape:window-x="57"
     inkscape:window-y="24"
     inkscape:window-maximized="1"
     inkscape:current-layer="svg3926" />
  <metadata
     id="metadata3928">
Created by potrace 1.11, written by Peter Selinger 2001-2013
<rdf:RDF>
  <cc:Work
     rdf:about="">
    <dc:format>image/svg+xml</dc:format>
    <dc:type
       rdf:resource="http://purl.org/dc/dcmitype/StillImage" />
  </cc:Work>
</rdf:RDF>
</metadata>
  <g
     transform="translate(0.000000,264.000000) scale(0.100000,-0.100000)"
     fill="#000000"
     stroke="none"
     id="g3930"
     style="fill:#ae3030;fill-opacity:1">
    <path
       d="M829 1813 c-20 -23 -25 -935 -6 -973 29 -57 56 -45 565 262 90 54 165 98 168 98 2 0 4 -79 4 -175 0 -218 -2 -215 132 -215 81 0 89 2 103 24 14 20 15 81 13 481 -3 533 9 485 -124 485 -77 0 -84 -2 -103 -26 -19 -24 -21 -40 -21 -180 0 -85 -2 -154 -4 -154 -2 0 -152 88 -334 195 -187 111 -341 195 -355 195 -14 0 -31 -7 -38 -17z"
       id="path3932"
       style="fill:#ae3030;fill-opacity:1" />
  </g>
</svg>
