<?xml version="1.0" standalone="no"?>
<!DOCTYPE svg PUBLIC "-//W3C//DTD SVG 20010904//EN"
 "http://www.w3.org/TR/2001/REC-SVG-20010904/DTD/svg10.dtd">
<svg version="1.0" xmlns="http://www.w3.org/2000/svg"
 width="264.000000pt" height="264.000000pt" viewBox="0 0 264.000000 264.000000"
 preserveAspectRatio="xMidYMid meet">
<metadata>
Created by potrace 1.11, written by Peter Selinger 2001-2013
</metadata>
<g transform="translate(0.000000,264.000000) scale(0.100000,-0.100000)"
fill="#000000" stroke="none">
<path d="M567 1822 c-15 -17 -17 -66 -17 -505 l0 -487 25 -16 c16 -10 34 -14
51 -10 24 6 228 123 452 259 l92 57 0 -136 c0 -130 1 -136 25 -159 13 -14 34
-25 47 -25 27 0 101 42 713 397 199 116 196 132 -40 272 -366 215 -631 363
-662 368 -25 4 -37 0 -57 -20 -25 -25 -26 -29 -26 -161 l0 -135 -77 48 c-222
136 -462 271 -485 271 -14 0 -32 -8 -41 -18z"/>
</g>
</svg>
